<?xml version="1.0" standalone="no"?>
<!DOCTYPE svg PUBLIC "-//W3C//DTD SVG 20010904//EN"
 "http://www.w3.org/TR/2001/REC-SVG-20010904/DTD/svg10.dtd">
<svg version="1.0" xmlns="http://www.w3.org/2000/svg"
 width="1024.000000pt" height="1024.000000pt" viewBox="0 0 1024.000000 1024.000000"
 preserveAspectRatio="xMidYMid meet">
<style>
    path { fill: #333333; }
    @media (prefers-color-scheme: dark) {
      path { fill: #FFFFFF; }
    }
  </style>
<g transform="translate(0.000000,1024.000000) scale(0.100000,-0.100000)"
fill="#000000" stroke="none">
<path d="M3035 9800 c-189 -13 -469 -64 -605 -109 -14 -5 -63 -21 -110 -36
-47 -15 -99 -33 -117 -41 -17 -8 -36 -14 -41 -14 -6 0 -27 -9 -49 -19 -21 -11
-83 -41 -138 -67 -157 -76 -428 -248 -540 -344 -145 -124 -258 -238 -362 -365
-41 -49 -81 -99 -90 -110 -86 -104 -260 -405 -330 -570 -202 -478 -275 -1090
-192 -1605 75 -467 228 -892 459 -1275 38 -64 70 -123 70 -131 0 -8 -8 -27
-19 -42 -83 -121 -242 -428 -297 -574 -86 -230 -154 -456 -193 -643 -62 -304
-67 -767 -12 -1095 26 -156 101 -438 137 -517 8 -17 14 -35 14 -40 0 -6 6 -23
14 -39 8 -16 29 -60 46 -99 57 -125 64 -139 119 -235 53 -93 163 -259 205
-311 11 -15 36 -46 55 -70 43 -55 318 -329 389 -387 72 -60 259 -192 272 -192
5 0 10 -4 10 -9 0 -5 8 -11 18 -14 9 -4 37 -18 62 -33 208 -124 514 -248 730
-294 30 -6 71 -16 90 -20 43 -11 191 -35 320 -52 125 -17 515 -17 655 0 329
40 675 132 950 252 109 48 392 189 428 214 21 14 42 26 47 26 6 0 10 3 10 8 0
9 66 45 83 45 6 0 55 -27 107 -60 83 -52 349 -188 465 -238 22 -10 54 -24 72
-31 17 -8 36 -14 42 -14 6 0 19 -4 29 -10 16 -9 211 -72 307 -99 78 -22 261
-59 350 -71 50 -6 112 -16 139 -21 86 -16 383 -22 531 -10 219 18 428 50 565
87 116 31 138 38 240 75 186 67 242 93 445 204 79 43 267 170 348 234 164 130
374 348 505 525 126 168 251 388 322 566 23 58 46 114 51 125 14 33 60 177 69
220 5 22 20 90 33 150 52 233 83 565 72 765 -31 563 -201 1111 -496 1601 l-79
132 26 40 c192 290 370 701 452 1047 51 213 63 282 83 475 11 111 15 437 6
510 -3 22 -9 72 -12 110 -16 168 -73 437 -129 608 -120 365 -305 678 -583 990
-268 299 -597 526 -1018 702 -259 108 -584 179 -904 197 -391 21 -781 -27
-1151 -144 -267 -84 -646 -258 -837 -385 l-53 -35 -45 31 c-25 17 -48 31 -51
31 -3 0 -19 9 -35 21 -59 42 -358 188 -499 243 -80 32 -154 61 -166 66 -120
48 -475 132 -652 154 -150 19 -475 27 -637 16z m436 -1400 c130 -18 205 -34
294 -60 134 -40 144 -44 193 -68 17 -9 32 -21 32 -27 0 -13 -1998 -2011 -2004
-2004 -14 14 -66 143 -88 219 -68 233 -83 321 -82 495 1 152 31 367 64 450 4
11 16 43 25 70 42 119 141 302 206 381 43 51 123 136 177 187 130 125 355 253
517 297 17 5 55 15 87 24 50 14 193 39 273 49 76 10 174 5 306 -13z m3706 0
c127 -20 248 -50 310 -77 17 -7 33 -13 37 -13 16 0 205 -97 259 -133 64 -43
80 -56 177 -142 118 -104 248 -275 306 -403 8 -18 28 -61 43 -96 29 -61 37
-87 67 -196 48 -175 63 -427 35 -600 -28 -171 -132 -500 -159 -500 -4 0 -459
452 -1011 1004 l-1004 1004 39 20 c39 19 138 54 244 85 209 61 457 79 657 47z
m162 -3281 c3 -11 -2204 -2219 -2219 -2219 -10 0 -2220 2208 -2220 2218 0 4
500 507 1110 1118 l1111 1111 1107 -1109 c609 -609 1109 -1113 1111 -1119z
m-4339 -2116 c550 -549 1000 -1001 1000 -1006 0 -6 -39 -26 -115 -58 -27 -12
-138 -47 -205 -65 -175 -48 -424 -64 -585 -40 -220 34 -335 69 -513 159 -465
235 -767 742 -765 1287 1 207 23 334 98 565 22 67 65 155 76 155 5 0 460 -449
1009 -997z m5284 945 c98 -225 157 -527 142 -733 -27 -376 -156 -686 -385
-930 -246 -262 -512 -396 -896 -450 -215 -31 -465 -3 -711 80 -138 46 -184 67
-184 84 0 17 1980 2000 1998 2000 7 1 23 -23 36 -51z"/>
</g>
</svg>
