<?xml version="1.0" standalone="no"?>
<!DOCTYPE svg PUBLIC "-//W3C//DTD SVG 20010904//EN"
 "http://www.w3.org/TR/2001/REC-SVG-20010904/DTD/svg10.dtd">
<svg version="1.0" xmlns="http://www.w3.org/2000/svg"
 width="110.000000pt" height="111.000000pt" viewBox="0 0 110.000000 111.000000"
 preserveAspectRatio="xMidYMid meet">
<g transform="translate(0.000000,111.000000) scale(0.100000,-0.100000)"
stroke="none"  fill="currentColor">
<path d="M270 1051 c-96 -31 -177 -108 -206 -193 -25 -75 -16 -190 19 -253
l27 -48 -27 -56 c-32 -64 -42 -169 -24 -238 39 -143 200 -243 346 -213 30 6
75 22 99 35 l46 24 67 -32 c57 -26 79 -31 140 -31 229 2 372 233 273 443 l-30
63 30 61 c25 50 30 72 30 132 0 99 -22 158 -84 221 -98 99 -239 122 -365 57
l-57 -30 -54 30 c-43 25 -66 31 -129 33 -42 2 -87 0 -101 -5z m220 -56 c39
-19 103 -75 218 -188 89 -88 162 -166 162 -172 0 -6 -11 -22 -25 -35 l-25 -24
-163 161 c-109 109 -177 168 -207 182 -83 38 -190 21 -243 -37 -43 -47 -57
-136 -33 -203 12 -33 11 -38 -15 -69 l-28 -34 -25 55 c-35 78 -41 128 -22 193
23 79 70 135 146 174 60 31 71 34 135 30 50 -4 85 -13 125 -33z m388 4 c102
-51 156 -136 155 -245 -1 -115 -50 -187 -282 -411 l-116 -112 -27 26 -28 27
160 162 c170 173 210 231 210 307 0 42 -22 101 -48 130 -46 51 -163 74 -226
46 -20 -10 -29 -8 -56 11 -17 12 -29 27 -27 34 7 21 110 55 168 56 43 0 70 -7
117 -31z m-451 -98 c8 -4 -27 -46 -102 -121 -63 -63 -117 -111 -121 -107 -16
15 -16 114 -1 143 22 42 67 81 107 93 34 10 93 6 117 -8z m368 8 c54 -14 111
-72 121 -123 7 -40 -2 -102 -16 -111 -10 -6 -220 196 -220 213 0 6 15 16 33
21 17 5 33 10 35 10 2 1 23 -4 47 -10z m-291 -60 l28 -22 -161 -161 c-169
-170 -211 -231 -211 -307 0 -140 140 -237 267 -184 36 15 37 15 65 -12 l29
-28 -22 -17 c-12 -10 -46 -25 -76 -34 -98 -29 -198 1 -270 79 -56 61 -75 108
-76 188 0 119 47 190 272 406 64 62 119 112 122 112 4 1 19 -9 33 -20z m295
-301 c-2 -2 -60 -57 -127 -123 l-122 -120 -120 120 c-66 66 -119 124 -117 128
1 5 56 62 122 128 l120 119 125 -125 c68 -68 122 -126 119 -127z m-152 -357
c24 -12 63 -24 87 -27 142 -20 257 129 201 262 -14 34 -14 38 8 64 12 16 26
29 30 29 4 1 20 -24 34 -55 68 -148 -12 -327 -167 -377 -64 -21 -80 -21 -155
-2 -81 21 -154 77 -320 244 l-139 140 29 31 29 30 160 -159 c91 -89 180 -168
203 -180z m271 149 c-9 -92 -87 -156 -180 -148 -27 3 -54 10 -59 15 -6 6 31
50 103 121 l113 111 14 -26 c8 -16 11 -44 9 -73z m-590 -13 c56 -56 102 -108
102 -114 0 -16 -62 -27 -106 -20 -72 12 -134 86 -134 159 0 46 10 78 24 78 6
0 57 -46 114 -103z"/>
</g>
</svg>
