<?xml version="1.0" standalone="no"?>
<!DOCTYPE svg PUBLIC "-//W3C//DTD SVG 20010904//EN"
 "http://www.w3.org/TR/2001/REC-SVG-20010904/DTD/svg10.dtd">
<svg version="1.0" xmlns="http://www.w3.org/2000/svg"
 width="612.000000pt" height="612.000000pt" viewBox="0 0 612.000000 612.000000"
 preserveAspectRatio="xMidYMid meet">
<metadata>
Created by potrace 1.16, written by Peter Selinger 2001-2019
</metadata>
<g transform="translate(0.000000,612.000000) scale(0.100000,-0.100000)"
fill="#000000" stroke="none">
<path d="M1858 4149 c-13 -7 -18 -23 -18 -58 0 -41 21 -90 168 -382 206 -413
244 -476 292 -489 19 -6 251 -37 515 -70 474 -59 555 -72 555 -90 0 -18 -81
-31 -555 -90 -264 -33 -496 -64 -516 -70 -30 -9 -43 -22 -87 -97 -29 -49 -123
-229 -209 -402 -128 -257 -157 -324 -161 -367 -4 -46 -2 -53 18 -64 43 -23
110 -5 305 82 105 47 264 118 355 158 91 40 190 83 220 97 30 14 165 74 300
133 1171 516 1169 515 1207 552 25 24 33 40 33 68 0 74 9 69 -810 430 -85 37
-360 159 -610 270 -250 111 -489 217 -530 235 -41 18 -143 62 -226 99 -152 66
-206 79 -246 55z"/>
</g>
</svg>
